<svg id="Capa_1" enable-background="new 0 0 512 512" height="512" viewBox="0 0 512 512" width="512" xmlns="http://www.w3.org/2000/svg" fill="#737373"><g><path d="m452 301.989h-90.333v-286.989c0-8.284-6.716-15-15-15h-181.334c-8.284 0-15 6.716-15 15v226.989h-90.333c-8.284 0-15 6.716-15 15v240.011c0 8.284 6.716 15 15 15h392c8.284 0 15-6.716 15-15v-180.011c0-8.284-6.716-15-15-15zm-271.667-271.989h151.334v271.989h-75.667v-45c0-8.284-6.716-15-15-15h-60.667zm-105.333 241.989h151v210.011h-30v-45.011c0-8.284-6.716-15-15-15h-61c-8.284 0-15 6.716-15 15v45.011h-30zm91 210.011h-31v-30.011h31zm196 0h-31v-30.011h31zm75 0h-45v-45.011c0-8.284-6.716-15-15-15h-61c-8.284 0-15 6.716-15 15v45.011h-45v-150.011h181z"/><path d="m326 361.989c-8.284 0-15 6.716-15 15s6.716 15 15 15h41c8.284 0 15-6.716 15-15s-6.716-15-15-15z"/><path d="m129.833 391.989h41c8.284 0 15-6.716 15-15s-6.716-15-15-15h-41c-8.284 0-15 6.716-15 15s6.716 15 15 15z"/><path d="m129.833 331.989h41c8.284 0 15-6.716 15-15s-6.716-15-15-15h-41c-8.284 0-15 6.716-15 15s6.716 15 15 15z"/><path d="m235.5 90h41c8.284 0 15-6.716 15-15s-6.716-15-15-15h-41c-8.284 0-15 6.716-15 15s6.716 15 15 15z"/><path d="m235.5 150h41c8.284 0 15-6.716 15-15s-6.716-15-15-15h-41c-8.284 0-15 6.716-15 15s6.716 15 15 15z"/><path d="m291.5 195c0-8.284-6.716-15-15-15h-41c-8.284 0-15 6.716-15 15s6.716 15 15 15h41c8.284 0 15-6.716 15-15z"/></g></svg> 