<svg width="42" height="42" viewBox="0 0 42 42" fill="none" xmlns="http://www.w3.org/2000/svg">
<g clip-path="url(#clip0)">
<path d="M22.1777 20.9834L35.8294 7.32098C36.1611 6.98896 36.1611 6.45774 35.8294 6.14232C35.4976 5.81031 34.9668 5.81031 34.6517 6.14232L20.6848 20.1036C20.6351 20.1534 20.6019 20.2032 20.5521 20.2696C20.4858 20.3028 20.436 20.336 20.3863 20.4024C20.0545 20.7344 20.0545 21.2656 20.3863 21.5811L34.6351 35.8411C34.801 36.0071 35.0166 36.0902 35.2322 36.0902C35.4479 36.0902 35.6635 36.0071 35.8294 35.8411C36.1611 35.5091 36.1611 34.9779 35.8294 34.6625L22.1777 20.9834Z" fill="#E92D30"/>
<path d="M20.9834 13.0316C20.519 13.0316 20.1541 12.6498 20.1541 12.2016V0.83004C20.1541 0.365217 20.5356 0 20.9834 0C21.4313 0 21.8128 0.381818 21.8128 0.83004V12.2016C21.8294 12.6498 21.4479 13.0316 20.9834 13.0316Z" fill="#FFDA00"/>
<path d="M20.9834 42C20.519 42 20.1541 41.6182 20.1541 41.17V29.7984C20.1541 29.3336 20.5356 28.9684 20.9834 28.9684C21.4479 28.9684 21.8128 29.3502 21.8128 29.7984V41.17C21.8294 41.6182 21.4479 42 20.9834 42Z" fill="#F6921E"/>
<path d="M41.9835 21.1493C41.9835 21.1327 41.9835 21.0995 41.9835 21.0829C41.9835 21.0497 42.0001 21.0165 42.0001 20.9833C42.0001 20.9501 42.0001 20.9169 41.9835 20.8837C41.9835 20.8671 41.9835 20.8339 41.9835 20.8173C41.9503 20.6679 41.884 20.5185 41.7513 20.3857L36.1115 14.7414C35.7797 14.4094 35.2489 14.4094 34.9172 14.7414C34.5854 15.0735 34.5854 15.6047 34.9172 15.9367L39.147 20.1699H29.8247C29.3603 20.1699 28.9954 20.5517 28.9954 20.9999C28.9954 21.4648 29.3769 21.83 29.8247 21.83H39.1304L34.9006 26.0632C34.5688 26.3952 34.5688 26.9264 34.9006 27.2584C35.0664 27.4245 35.2821 27.5075 35.4977 27.5075C35.7134 27.5075 35.929 27.4245 36.0949 27.2584L41.7347 21.6142C41.8674 21.4648 41.9503 21.332 41.9835 21.1493C41.9835 21.166 41.9835 21.166 41.9835 21.1493Z" fill="#122434"/>
<path d="M7.33175 6.14232C7 5.81031 6.46919 5.81031 6.15402 6.14232C5.82227 6.47434 5.82227 7.00556 6.15402 7.32098L18.9763 20.1534H0.829384C0.364929 20.1534 0 20.5352 0 20.9834C0 21.4483 0.381516 21.8135 0.829384 21.8135H18.9763L6.15402 34.6459C5.82227 34.9779 5.82227 35.5091 6.15402 35.8245C6.3199 35.9905 6.53554 36.0735 6.75118 36.0735C6.96682 36.0735 7.18246 35.9905 7.34834 35.8245L22.1943 20.9668L7.33175 6.14232Z" fill="#122434"/>
</g>
<defs>
<clipPath id="clip0">
<rect width="42" height="42" fill="white"/>
</clipPath>
</defs>
</svg>
